<svg width="166" height="42" viewBox="0 0 166 42" fill="none" xmlns="http://www.w3.org/2000/svg">
<path d="M60.0312 28.404H66.9392V31H56.4672V28.624L63.3312 18.24H56.4672V15.644H66.9392V18.02L60.0312 28.404ZM80.891 24.642C80.891 25.082 80.8616 25.478 80.803 25.83H71.893C71.9663 26.71 72.2743 27.3993 72.817 27.898C73.3596 28.3967 74.027 28.646 74.819 28.646C75.963 28.646 76.777 28.1547 77.261 27.172H80.583C80.231 28.3453 79.5563 29.3133 78.559 30.076C77.5616 30.824 76.337 31.198 74.885 31.198C73.7116 31.198 72.6556 30.9413 71.717 30.428C70.793 29.9 70.067 29.1593 69.539 28.206C69.0256 27.2527 68.769 26.1527 68.769 24.906C68.769 23.6447 69.0256 22.5373 69.539 21.584C70.0523 20.6307 70.771 19.8973 71.695 19.384C72.619 18.8707 73.6823 18.614 74.885 18.614C76.0436 18.614 77.0776 18.8633 77.987 19.362C78.911 19.8607 79.6223 20.572 80.121 21.496C80.6343 22.4053 80.891 23.454 80.891 24.642ZM77.701 23.762C77.6863 22.97 77.4003 22.3393 76.843 21.87C76.2856 21.386 75.6036 21.144 74.797 21.144C74.0343 21.144 73.389 21.3787 72.861 21.848C72.3476 22.3027 72.0323 22.9407 71.915 23.762H77.701ZM89.8931 18.636C91.3451 18.636 92.5184 19.098 93.4131 20.022C94.3078 20.9313 94.7551 22.2073 94.7551 23.85V31H91.6751V24.268C91.6751 23.3 91.4331 22.5593 90.9491 22.046C90.4651 21.518 89.8051 21.254 88.9691 21.254C88.1184 21.254 87.4438 21.518 86.9451 22.046C86.4611 22.5593 86.2191 23.3 86.2191 24.268V31H83.1391V18.812H86.2191V20.33C86.6298 19.802 87.1504 19.3913 87.7811 19.098C88.4264 18.79 89.1304 18.636 89.8931 18.636ZM108.134 15.644V18.13H104.042V31H100.962V18.13H96.87V15.644H108.134ZM121.711 24.642C121.711 25.082 121.682 25.478 121.623 25.83H112.713C112.787 26.71 113.095 27.3993 113.637 27.898C114.18 28.3967 114.847 28.646 115.639 28.646C116.783 28.646 117.597 28.1547 118.081 27.172H121.403C121.051 28.3453 120.377 29.3133 119.379 30.076C118.382 30.824 117.157 31.198 115.705 31.198C114.532 31.198 113.476 30.9413 112.537 30.428C111.613 29.9 110.887 29.1593 110.359 28.206C109.846 27.2527 109.589 26.1527 109.589 24.906C109.589 23.6447 109.846 22.5373 110.359 21.584C110.873 20.6307 111.591 19.8973 112.515 19.384C113.439 18.8707 114.503 18.614 115.705 18.614C116.864 18.614 117.898 18.8633 118.807 19.362C119.731 19.8607 120.443 20.572 120.941 21.496C121.455 22.4053 121.711 23.454 121.711 24.642ZM118.521 23.762C118.507 22.97 118.221 22.3393 117.663 21.87C117.106 21.386 116.424 21.144 115.617 21.144C114.855 21.144 114.209 21.3787 113.681 21.848C113.168 22.3027 112.853 22.9407 112.735 23.762H118.521ZM123.167 24.906C123.167 23.6447 123.424 22.5447 123.937 21.606C124.451 20.6527 125.162 19.9193 126.071 19.406C126.981 18.878 128.022 18.614 129.195 18.614C130.706 18.614 131.953 18.9953 132.935 19.758C133.933 20.506 134.6 21.562 134.937 22.926H131.615C131.439 22.398 131.139 21.9873 130.713 21.694C130.303 21.386 129.789 21.232 129.173 21.232C128.293 21.232 127.597 21.5547 127.083 22.2C126.57 22.8307 126.313 23.7327 126.313 24.906C126.313 26.0647 126.57 26.9667 127.083 27.612C127.597 28.2427 128.293 28.558 129.173 28.558C130.42 28.558 131.234 28.0007 131.615 26.886H134.937C134.6 28.206 133.933 29.2547 132.935 30.032C131.938 30.8093 130.691 31.198 129.195 31.198C128.022 31.198 126.981 30.9413 126.071 30.428C125.162 29.9 124.451 29.1667 123.937 28.228C123.424 27.2747 123.167 26.1673 123.167 24.906ZM144.058 18.636C144.982 18.636 145.803 18.8413 146.522 19.252C147.24 19.648 147.798 20.242 148.194 21.034C148.604 21.8113 148.81 22.75 148.81 23.85V31H145.73V24.268C145.73 23.3 145.488 22.5593 145.004 22.046C144.52 21.518 143.86 21.254 143.024 21.254C142.173 21.254 141.498 21.518 141 22.046C140.516 22.5593 140.274 23.3 140.274 24.268V31H137.194V14.72H140.274V20.33C140.67 19.802 141.198 19.3913 141.858 19.098C142.518 18.79 143.251 18.636 144.058 18.636Z" fill="#124261"/>
<path d="M11.2939 0H36.6174L46.3674 11.8676L33.4409 27.4412H19.4115L32.4704 11.2941L1.80859 11.1618L11.2939 0Z" fill="url(#paint0_linear_497_1994)"/>
<path d="M35.0735 41.206H9.70588L0 29.3384L12.8824 13.7207H26.9118L13.8971 29.9119L44.5147 30.0442L35.0735 41.206Z" fill="url(#paint1_linear_497_1994)"/>
<defs>
<linearGradient id="paint0_linear_497_1994" x1="1.82906" y1="13.7316" x2="46.3564" y2="13.7316" gradientUnits="userSpaceOnUse">
<stop stop-color="#57CAF4"/>
<stop offset="1" stop-color="#AEE1F1"/>
</linearGradient>
<linearGradient id="paint1_linear_497_1994" x1="-0.0141618" y1="27.4634" x2="44.5131" y2="27.4634" gradientUnits="userSpaceOnUse">
<stop stop-color="#2484C6"/>
<stop offset="0.9939" stop-color="#0D0E1F"/>
</linearGradient>
</defs>
</svg>
